<svg xmlns="http://www.w3.org/2000/svg" viewBox="0 0 64 80" x="0px" y="0px"><g data-name="Layer 1"><path d="M59,18.5H57.97241a2.95589,2.95589,0,0,0-1.90014-2.43945,27.82748,27.82748,0,0,0-13.80262-1.28772,16.60916,16.60916,0,0,0-29.795.08172c-2.3665.63171-6.01425.66668-6.447,3.64545H5a3.00328,3.00328,0,0,0-3,3v33a3.00328,3.00328,0,0,0,3,3H27.78027A2.98179,2.98179,0,0,0,30,58.5h4a2.98179,2.98179,0,0,0,2.21973-1H59a3.00328,3.00328,0,0,0,3-3v-33A3.00328,3.00328,0,0,0,59,18.5Zm-3.61133-.56006A.97873.97873,0,0,1,56,18.85986v28.79a.95575.95575,0,0,1-.39062.78174,1.06847,1.06847,0,0,1-.9502.16113A28.91584,28.91584,0,0,0,33,50.79834V37.72089a16.5212,16.5212,0,0,0,2.9339-1.39643l5.33563,7.1145a5.404,5.404,0,1,0,7.57023-7.55907l-7.15134-5.36158a16.55824,16.55824,0,0,0,1.38012-13.84369A25.81422,25.81422,0,0,1,55.38867,17.93994ZM10,50.48486A26.7068,26.7068,0,0,1,27.76233,51.5H11A1.00174,1.00174,0,0,1,10,50.48486ZM36.23724,51.5A26.70287,26.70287,0,0,1,54,50.48517,1.00143,1.00143,0,0,1,53,51.5Zm4.331-19.32184L47.6416,37.481a3.40078,3.40078,0,1,1-4.77148,4.75873l-5.2854-7.04712A16.72419,16.72419,0,0,0,40.56824,32.17816ZM27.3916,7.5A14.62516,14.62516,0,0,1,42,22.1084c-.80281,19.37908-28.41663,19.37393-29.21634-.00011A14.62476,14.62476,0,0,1,27.3916,7.5ZM8,18.85986a.9797.9797,0,0,1,.61475-.9209,24.11424,24.11424,0,0,1,2.94647-.84466C7.55235,28.97522,18.79756,41.28214,31,38.30994v12.4884a28.911,28.911,0,0,0-21.65576-2.207,1.06542,1.06542,0,0,1-.95362-.15967A.95365.95365,0,0,1,8,47.6499ZM5,55.5a1.0013,1.0013,0,0,1-1-1v-33a1.0013,1.0013,0,0,1,1-1H6V47.6499a2.94049,2.94049,0,0,0,2,2.79956A3.00489,3.00489,0,0,0,11,53.5H27v2Zm29,1H30a1.0013,1.0013,0,0,1-1-1v-2h6v2A1.001,1.001,0,0,1,34,56.5Zm26-2a1.001,1.001,0,0,1-1,1H37v-2H53a3.00491,3.00491,0,0,0,3-3.05121,2.93947,2.93947,0,0,0,2-2.7989L58,20.5h1a1.001,1.001,0,0,1,1,1Z"/><path d="M27.3916,34.71631A12.62245,12.62245,0,0,0,40,22.1084c-.69278-16.7265-24.52626-16.72212-25.21633.00009A12.622,12.622,0,0,0,27.3916,34.71631Zm0-23.21631A10.62026,10.62026,0,0,1,38,22.1084c-.58271,14.07257-20.63562,14.069-21.21633-.00008A10.62017,10.62017,0,0,1,27.3916,11.5Z"/><path d="M24.5,19.60693a1,1,0,0,0,1-1,2.002,2.002,0,0,1,2-2h1a2.09273,2.09273,0,0,1,.89447,3.9346l-1.03656.51853A3.49724,3.49724,0,0,0,26.50006,24.607,1.00016,1.00016,0,0,0,28.5,24.60687v-.54046c-.0605-.99563,1.07344-1.37509,1.78911-1.73581,3.74173-1.83688,2.42307-7.75418-1.78923-7.72362-2.61123-.28287-4.9504,1.2321-4.99988,4A1,1,0,0,0,24.5,19.60693Z"/><path d="M27.5,26.60986a1.0001,1.0001,0,0,0,0,2A1.0001,1.0001,0,0,0,27.5,26.60986Z"/></g><text x="0" y="79" fill="#000000" font-size="5px" font-weight="bold" font-family="'Helvetica Neue', Helvetica, Arial-Unicode, Arial, Sans-serif">Created by LUTFI GANI AL ACHMAD</text><text x="0" y="84" fill="#000000" font-size="5px" font-weight="bold" font-family="'Helvetica Neue', Helvetica, Arial-Unicode, Arial, Sans-serif">from the Noun Project</text></svg>